<?xml version="1.0" encoding="UTF-8"?>
<svg xmlns="http://www.w3.org/2000/svg" xmlns:xlink="http://www.w3.org/1999/xlink" width="25px" height="25px" viewBox="0 0 25 25" version="1.1">
<g id="surface1">
<path style=" stroke:none;fill-rule:nonzero;fill:rgb(70,195,219);fill-opacity:1;" d="M 11.980469 22.917969 C 10.382812 22.917969 9.027344 22.359375 7.917969 21.25 C 6.804688 20.140625 6.25 18.785156 6.25 17.1875 L 6.25 6.25 C 6.25 5.105469 6.65625 4.125 7.472656 3.308594 C 8.289062 2.492188 9.269531 2.082031 10.417969 2.082031 C 11.5625 2.082031 12.542969 2.492188 13.359375 3.308594 C 14.175781 4.125 14.582031 5.105469 14.582031 6.25 L 14.582031 16.144531 C 14.582031 16.875 14.332031 17.492188 13.828125 17.996094 C 13.324219 18.5 12.707031 18.75 11.980469 18.75 C 11.25 18.75 10.632812 18.5 10.128906 17.996094 C 9.625 17.492188 9.375 16.875 9.375 16.144531 L 9.375 6.25 L 10.9375 6.25 L 10.9375 16.144531 C 10.9375 16.441406 11.039062 16.6875 11.238281 16.886719 C 11.4375 17.085938 11.683594 17.1875 11.980469 17.1875 C 12.273438 17.1875 12.523438 17.085938 12.722656 16.886719 C 12.921875 16.6875 13.019531 16.441406 13.019531 16.144531 L 13.019531 6.25 C 13.019531 5.519531 12.769531 4.90625 12.265625 4.402344 C 11.761719 3.898438 11.144531 3.644531 10.417969 3.644531 C 9.6875 3.644531 9.070312 3.898438 8.566406 4.402344 C 8.0625 4.90625 7.8125 5.519531 7.8125 6.25 L 7.8125 17.1875 C 7.8125 18.332031 8.21875 19.3125 9.035156 20.128906 C 9.851562 20.945312 10.832031 21.355469 11.980469 21.355469 C 13.125 21.355469 14.105469 20.945312 14.921875 20.128906 C 15.738281 19.3125 16.144531 18.332031 16.144531 17.1875 L 16.144531 6.25 L 17.707031 6.25 L 17.707031 17.1875 C 17.707031 18.785156 17.152344 20.140625 16.042969 21.25 C 14.929688 22.359375 13.578125 22.917969 11.980469 22.917969 Z M 11.980469 22.917969 "/>
</g>
</svg>
