<?xml version="1.0" encoding="UTF-8"?>
<svg xmlns="http://www.w3.org/2000/svg" xmlns:xlink="http://www.w3.org/1999/xlink" width="25px" height="25px" viewBox="0 0 25 25" version="1.1">
<g id="surface1">
<path style=" stroke:none;fill-rule:nonzero;fill:rgb(70,195,219);fill-opacity:1;" d="M 18.75 14.582031 L 18.75 11.457031 L 15.625 11.457031 L 15.625 9.375 L 18.75 9.375 L 18.75 6.25 L 20.832031 6.25 L 20.832031 9.375 L 23.957031 9.375 L 23.957031 11.457031 L 20.832031 11.457031 L 20.832031 14.582031 Z M 9.375 12.5 C 8.230469 12.5 7.25 12.09375 6.433594 11.277344 C 5.617188 10.460938 5.207031 9.480469 5.207031 8.332031 C 5.207031 7.1875 5.617188 6.207031 6.433594 5.390625 C 7.25 4.574219 8.230469 4.167969 9.375 4.167969 C 10.519531 4.167969 11.5 4.574219 12.316406 5.390625 C 13.132812 6.207031 13.542969 7.1875 13.542969 8.332031 C 13.542969 9.480469 13.132812 10.460938 12.316406 11.277344 C 11.5 12.09375 10.519531 12.5 9.375 12.5 Z M 1.042969 20.832031 L 1.042969 17.917969 C 1.042969 17.328125 1.195312 16.785156 1.496094 16.289062 C 1.800781 15.792969 2.203125 15.417969 2.707031 15.15625 C 3.785156 14.617188 4.878906 14.214844 5.988281 13.945312 C 7.101562 13.675781 8.230469 13.542969 9.375 13.542969 C 10.519531 13.542969 11.648438 13.675781 12.761719 13.945312 C 13.871094 14.214844 14.964844 14.617188 16.042969 15.15625 C 16.546875 15.417969 16.949219 15.792969 17.253906 16.289062 C 17.554688 16.785156 17.707031 17.328125 17.707031 17.917969 L 17.707031 20.832031 Z M 3.125 18.75 L 15.625 18.75 L 15.625 17.917969 C 15.625 17.726562 15.578125 17.550781 15.480469 17.394531 C 15.386719 17.238281 15.261719 17.117188 15.105469 17.03125 C 14.167969 16.5625 13.21875 16.210938 12.265625 15.976562 C 11.3125 15.742188 10.347656 15.625 9.375 15.625 C 8.402344 15.625 7.4375 15.742188 6.484375 15.976562 C 5.53125 16.210938 4.582031 16.5625 3.644531 17.03125 C 3.488281 17.117188 3.363281 17.238281 3.269531 17.394531 C 3.171875 17.550781 3.125 17.726562 3.125 17.917969 Z M 9.375 10.417969 C 9.949219 10.417969 10.4375 10.210938 10.847656 9.804688 C 11.253906 9.398438 11.457031 8.90625 11.457031 8.332031 C 11.457031 7.761719 11.253906 7.269531 10.847656 6.863281 C 10.4375 6.453125 9.949219 6.25 9.375 6.25 C 8.800781 6.25 8.3125 6.453125 7.902344 6.863281 C 7.496094 7.269531 7.292969 7.761719 7.292969 8.332031 C 7.292969 8.90625 7.496094 9.398438 7.902344 9.804688 C 8.3125 10.210938 8.800781 10.417969 9.375 10.417969 Z M 9.375 8.332031 Z M 9.375 18.75 Z M 9.375 18.75 "/>
</g>
</svg>
