<?xml version="1.0" encoding="UTF-8"?>
<svg xmlns="http://www.w3.org/2000/svg" xmlns:xlink="http://www.w3.org/1999/xlink" width="25px" height="25px" viewBox="0 0 25 25" version="1.1">
<g id="surface1">
<path style=" stroke:none;fill-rule:nonzero;fill:rgb(70,195,219);fill-opacity:1;" d="M 12.5 21.875 C 9.894531 21.875 7.683594 20.964844 5.859375 19.140625 C 4.035156 17.316406 3.125 15.105469 3.125 12.5 C 3.125 9.894531 4.035156 7.683594 5.859375 5.859375 C 7.683594 4.035156 9.894531 3.125 12.5 3.125 C 12.742188 3.125 12.980469 3.132812 13.214844 3.152344 C 13.449219 3.167969 13.679688 3.195312 13.90625 3.230469 C 13.195312 3.734375 12.625 4.386719 12.199219 5.195312 C 11.773438 6.003906 11.5625 6.875 11.5625 7.8125 C 11.5625 9.375 12.109375 10.703125 13.203125 11.796875 C 14.296875 12.890625 15.625 13.4375 17.1875 13.4375 C 18.140625 13.4375 19.019531 13.226562 19.816406 12.800781 C 20.617188 12.375 21.265625 11.804688 21.769531 11.09375 C 21.804688 11.320312 21.832031 11.550781 21.847656 11.785156 C 21.867188 12.019531 21.875 12.257812 21.875 12.5 C 21.875 15.105469 20.964844 17.316406 19.140625 19.140625 C 17.316406 20.964844 15.105469 21.875 12.5 21.875 Z M 12.5 19.792969 C 14.027344 19.792969 15.398438 19.371094 16.613281 18.527344 C 17.828125 17.6875 18.714844 16.589844 19.269531 15.234375 C 18.921875 15.320312 18.578125 15.390625 18.230469 15.441406 C 17.882812 15.496094 17.535156 15.519531 17.1875 15.519531 C 15.050781 15.519531 13.234375 14.769531 11.730469 13.269531 C 10.230469 11.765625 9.480469 9.949219 9.480469 7.8125 C 9.480469 7.464844 9.503906 7.117188 9.558594 6.769531 C 9.609375 6.421875 9.679688 6.078125 9.765625 5.730469 C 8.410156 6.285156 7.3125 7.171875 6.472656 8.386719 C 5.628906 9.601562 5.207031 10.972656 5.207031 12.5 C 5.207031 14.515625 5.921875 16.234375 7.34375 17.65625 C 8.765625 19.078125 10.484375 19.792969 12.5 19.792969 Z M 12.238281 12.761719 Z M 12.238281 12.761719 "/>
</g>
</svg>
