<?xml version="1.0" encoding="UTF-8"?>
<svg xmlns="http://www.w3.org/2000/svg" xmlns:xlink="http://www.w3.org/1999/xlink" width="25px" height="25px" viewBox="0 0 25 25" version="1.1">
<g id="surface1">
<path style=" stroke:none;fill-rule:nonzero;fill:rgb(70,195,219);fill-opacity:1;" d="M 16.144531 11.457031 C 16.578125 11.457031 16.949219 11.304688 17.253906 11.003906 C 17.554688 10.699219 17.707031 10.328125 17.707031 9.894531 C 17.707031 9.460938 17.554688 9.09375 17.253906 8.789062 C 16.949219 8.484375 16.578125 8.332031 16.144531 8.332031 C 15.710938 8.332031 15.34375 8.484375 15.039062 8.789062 C 14.734375 9.09375 14.582031 9.460938 14.582031 9.894531 C 14.582031 10.328125 14.734375 10.699219 15.039062 11.003906 C 15.34375 11.304688 15.710938 11.457031 16.144531 11.457031 Z M 8.855469 11.457031 C 9.289062 11.457031 9.65625 11.304688 9.960938 11.003906 C 10.265625 10.699219 10.417969 10.328125 10.417969 9.894531 C 10.417969 9.460938 10.265625 9.09375 9.960938 8.789062 C 9.65625 8.484375 9.289062 8.332031 8.855469 8.332031 C 8.421875 8.332031 8.050781 8.484375 7.746094 8.789062 C 7.445312 9.09375 7.292969 9.460938 7.292969 9.894531 C 7.292969 10.328125 7.445312 10.699219 7.746094 11.003906 C 8.050781 11.304688 8.421875 11.457031 8.855469 11.457031 Z M 12.5 18.230469 C 13.679688 18.230469 14.753906 17.894531 15.714844 17.226562 C 16.679688 16.558594 17.378906 15.675781 17.8125 14.582031 L 7.1875 14.582031 C 7.621094 15.675781 8.320312 16.558594 9.285156 17.226562 C 10.246094 17.894531 11.320312 18.230469 12.5 18.230469 Z M 12.5 22.917969 C 11.058594 22.917969 9.703125 22.644531 8.4375 22.097656 C 7.171875 21.550781 6.066406 20.808594 5.128906 19.871094 C 4.191406 18.933594 3.449219 17.828125 2.902344 16.5625 C 2.355469 15.296875 2.082031 13.941406 2.082031 12.5 C 2.082031 11.058594 2.355469 9.703125 2.902344 8.4375 C 3.449219 7.171875 4.191406 6.066406 5.128906 5.128906 C 6.066406 4.191406 7.171875 3.449219 8.4375 2.902344 C 9.703125 2.355469 11.058594 2.082031 12.5 2.082031 C 13.941406 2.082031 15.296875 2.355469 16.5625 2.902344 C 17.828125 3.449219 18.933594 4.191406 19.871094 5.128906 C 20.808594 6.066406 21.550781 7.171875 22.097656 8.4375 C 22.644531 9.703125 22.917969 11.058594 22.917969 12.5 C 22.917969 13.941406 22.644531 15.296875 22.097656 16.5625 C 21.550781 17.828125 20.808594 18.933594 19.871094 19.871094 C 18.933594 20.808594 17.828125 21.550781 16.5625 22.097656 C 15.296875 22.644531 13.941406 22.917969 12.5 22.917969 Z M 12.5 12.5 Z M 12.5 20.832031 C 14.828125 20.832031 16.796875 20.027344 18.410156 18.410156 C 20.027344 16.796875 20.832031 14.828125 20.832031 12.5 C 20.832031 10.171875 20.027344 8.203125 18.410156 6.589844 C 16.796875 4.972656 14.828125 4.167969 12.5 4.167969 C 10.171875 4.167969 8.203125 4.972656 6.589844 6.589844 C 4.972656 8.203125 4.167969 10.171875 4.167969 12.5 C 4.167969 14.828125 4.972656 16.796875 6.589844 18.410156 C 8.203125 20.027344 10.171875 20.832031 12.5 20.832031 Z M 12.5 20.832031 "/>
</g>
</svg>
