<?xml version="1.0" encoding="UTF-8"?>
<svg xmlns="http://www.w3.org/2000/svg" xmlns:xlink="http://www.w3.org/1999/xlink" width="25px" height="25px" viewBox="0 0 25 25" version="1.1">
<g id="surface1">
<path style=" stroke:none;fill-rule:nonzero;fill:rgb(70,195,219);fill-opacity:1;" d="M 13.019531 12.449219 C 13.523438 11.890625 13.910156 11.257812 14.179688 10.546875 C 14.449219 9.835938 14.582031 9.097656 14.582031 8.332031 C 14.582031 7.570312 14.449219 6.832031 14.179688 6.121094 C 13.910156 5.40625 13.523438 4.773438 13.019531 4.21875 C 14.0625 4.359375 14.929688 4.816406 15.625 5.597656 C 16.320312 6.378906 16.667969 7.292969 16.667969 8.332031 C 16.667969 9.375 16.320312 10.285156 15.625 11.066406 C 14.929688 11.847656 14.0625 12.308594 13.019531 12.449219 Z M 18.75 20.832031 L 18.75 17.707031 C 18.75 17.082031 18.609375 16.488281 18.332031 15.925781 C 18.054688 15.359375 17.691406 14.859375 17.238281 14.425781 C 18.125 14.738281 18.945312 15.144531 19.699219 15.636719 C 20.457031 16.132812 20.832031 16.824219 20.832031 17.707031 L 20.832031 20.832031 Z M 20.832031 13.542969 L 20.832031 11.457031 L 18.75 11.457031 L 18.75 9.375 L 20.832031 9.375 L 20.832031 7.292969 L 22.917969 7.292969 L 22.917969 9.375 L 25 9.375 L 25 11.457031 L 22.917969 11.457031 L 22.917969 13.542969 Z M 8.332031 12.5 C 7.1875 12.5 6.207031 12.09375 5.390625 11.277344 C 4.574219 10.460938 4.167969 9.480469 4.167969 8.332031 C 4.167969 7.1875 4.574219 6.207031 5.390625 5.390625 C 6.207031 4.574219 7.1875 4.167969 8.332031 4.167969 C 9.480469 4.167969 10.460938 4.574219 11.277344 5.390625 C 12.09375 6.207031 12.5 7.1875 12.5 8.332031 C 12.5 9.480469 12.09375 10.460938 11.277344 11.277344 C 10.460938 12.09375 9.480469 12.5 8.332031 12.5 Z M 0 20.832031 L 0 17.917969 C 0 17.328125 0.152344 16.785156 0.457031 16.289062 C 0.757812 15.792969 1.164062 15.417969 1.667969 15.15625 C 2.742188 14.617188 3.835938 14.214844 4.949219 13.945312 C 6.058594 13.675781 7.1875 13.542969 8.332031 13.542969 C 9.480469 13.542969 10.609375 13.675781 11.71875 13.945312 C 12.828125 14.214844 13.921875 14.617188 15 15.15625 C 15.503906 15.417969 15.90625 15.792969 16.210938 16.289062 C 16.515625 16.785156 16.667969 17.328125 16.667969 17.917969 L 16.667969 20.832031 Z M 8.332031 10.417969 C 8.90625 10.417969 9.398438 10.210938 9.804688 9.804688 C 10.210938 9.398438 10.417969 8.90625 10.417969 8.332031 C 10.417969 7.761719 10.210938 7.269531 9.804688 6.863281 C 9.398438 6.453125 8.90625 6.25 8.332031 6.25 C 7.761719 6.25 7.269531 6.453125 6.863281 6.863281 C 6.453125 7.269531 6.25 7.761719 6.25 8.332031 C 6.25 8.90625 6.453125 9.398438 6.863281 9.804688 C 7.269531 10.210938 7.761719 10.417969 8.332031 10.417969 Z M 2.082031 18.75 L 14.582031 18.75 L 14.582031 17.917969 C 14.582031 17.726562 14.535156 17.550781 14.441406 17.394531 C 14.34375 17.238281 14.21875 17.117188 14.0625 17.03125 C 13.125 16.5625 12.179688 16.210938 11.222656 15.976562 C 10.269531 15.742188 9.304688 15.625 8.332031 15.625 C 7.359375 15.625 6.398438 15.742188 5.441406 15.976562 C 4.488281 16.210938 3.542969 16.5625 2.605469 17.03125 C 2.449219 17.117188 2.320312 17.238281 2.226562 17.394531 C 2.132812 17.550781 2.082031 17.726562 2.082031 17.917969 Z M 8.332031 8.332031 Z M 8.332031 18.75 Z M 8.332031 18.75 "/>
</g>
</svg>
