<?xml version="1.0" encoding="UTF-8"?>
<svg xmlns="http://www.w3.org/2000/svg" xmlns:xlink="http://www.w3.org/1999/xlink" width="20px" height="20px" viewBox="0 0 20 20" version="1.1">
<g id="surface1">
<path style=" stroke:none;fill-rule:nonzero;fill:rgb(70,195,219);fill-opacity:1;" d="M 10 16.667969 C 9.542969 16.667969 9.148438 16.503906 8.824219 16.175781 C 8.496094 15.851562 8.332031 15.457031 8.332031 15 C 8.332031 14.542969 8.496094 14.148438 8.824219 13.824219 C 9.148438 13.496094 9.542969 13.332031 10 13.332031 C 10.457031 13.332031 10.851562 13.496094 11.175781 13.824219 C 11.503906 14.148438 11.667969 14.542969 11.667969 15 C 11.667969 15.457031 11.503906 15.851562 11.175781 16.175781 C 10.851562 16.503906 10.457031 16.667969 10 16.667969 Z M 10 11.667969 C 9.542969 11.667969 9.148438 11.503906 8.824219 11.175781 C 8.496094 10.851562 8.332031 10.457031 8.332031 10 C 8.332031 9.542969 8.496094 9.148438 8.824219 8.824219 C 9.148438 8.496094 9.542969 8.332031 10 8.332031 C 10.457031 8.332031 10.851562 8.496094 11.175781 8.824219 C 11.503906 9.148438 11.667969 9.542969 11.667969 10 C 11.667969 10.457031 11.503906 10.851562 11.175781 11.175781 C 10.851562 11.503906 10.457031 11.667969 10 11.667969 Z M 10 6.667969 C 9.542969 6.667969 9.148438 6.503906 8.824219 6.175781 C 8.496094 5.851562 8.332031 5.457031 8.332031 5 C 8.332031 4.542969 8.496094 4.148438 8.824219 3.824219 C 9.148438 3.496094 9.542969 3.332031 10 3.332031 C 10.457031 3.332031 10.851562 3.496094 11.175781 3.824219 C 11.503906 4.148438 11.667969 4.542969 11.667969 5 C 11.667969 5.457031 11.503906 5.851562 11.175781 6.175781 C 10.851562 6.503906 10.457031 6.667969 10 6.667969 Z M 10 6.667969 "/>
</g>
</svg>
