<?xml version="1.0" encoding="UTF-8"?>
<svg xmlns="http://www.w3.org/2000/svg" xmlns:xlink="http://www.w3.org/1999/xlink" width="25px" height="25px" viewBox="0 0 25 25" version="1.1">
<g id="surface1">
<path style=" stroke:none;fill-rule:nonzero;fill:rgb(70,195,219);fill-opacity:1;" d="M 20.414062 21.875 L 13.851562 15.3125 C 13.335938 15.726562 12.734375 16.058594 12.054688 16.304688 C 11.382812 16.542969 10.660156 16.664062 9.898438 16.664062 C 8.003906 16.664062 6.402344 16.011719 5.09375 14.703125 C 3.78125 13.390625 3.125 11.789062 3.125 9.898438 C 3.125 8.003906 3.78125 6.402344 5.09375 5.09375 C 6.402344 3.78125 8.003906 3.125 9.898438 3.125 C 11.789062 3.125 13.390625 3.78125 14.703125 5.09375 C 16.011719 6.402344 16.664062 8.003906 16.664062 9.898438 C 16.664062 10.660156 16.542969 11.382812 16.304688 12.054688 C 16.058594 12.734375 15.726562 13.335938 15.3125 13.851562 L 21.875 20.414062 Z M 9.898438 14.585938 C 11.195312 14.585938 12.304688 14.125 13.21875 13.21875 C 14.125 12.304688 14.585938 11.195312 14.585938 9.898438 C 14.585938 8.59375 14.125 7.484375 13.21875 6.578125 C 12.304688 5.664062 11.195312 5.210938 9.898438 5.210938 C 8.59375 5.210938 7.484375 5.664062 6.578125 6.578125 C 5.664062 7.484375 5.210938 8.59375 5.210938 9.898438 C 5.210938 11.195312 5.664062 12.304688 6.578125 13.21875 C 7.484375 14.125 8.59375 14.585938 9.898438 14.585938 Z M 9.898438 14.585938 "/>
</g>
</svg>
