<?xml version="1.0" encoding="UTF-8"?>
<svg xmlns="http://www.w3.org/2000/svg" xmlns:xlink="http://www.w3.org/1999/xlink" width="25px" height="25px" viewBox="0 0 25 25" version="1.1">
<g id="surface1">
<path style=" stroke:none;fill-rule:nonzero;fill:rgb(70,195,219);fill-opacity:1;" d="M 9.636719 22.917969 L 9.21875 19.582031 C 8.992188 19.496094 8.78125 19.390625 8.582031 19.269531 C 8.382812 19.148438 8.1875 19.019531 7.996094 18.878906 L 4.894531 20.183594 L 2.03125 15.234375 L 4.714844 13.203125 C 4.695312 13.082031 4.6875 12.964844 4.6875 12.851562 L 4.6875 12.148438 C 4.6875 12.035156 4.695312 11.917969 4.714844 11.796875 L 2.03125 9.765625 L 4.894531 4.816406 L 7.996094 6.121094 C 8.1875 5.980469 8.386719 5.851562 8.59375 5.730469 C 8.800781 5.609375 9.011719 5.503906 9.21875 5.417969 L 9.636719 2.082031 L 15.363281 2.082031 L 15.78125 5.417969 C 16.007812 5.503906 16.21875 5.609375 16.417969 5.730469 C 16.617188 5.851562 16.8125 5.980469 17.003906 6.121094 L 20.105469 4.816406 L 22.96875 9.765625 L 20.285156 11.796875 C 20.304688 11.917969 20.3125 12.035156 20.3125 12.148438 L 20.3125 12.851562 C 20.3125 12.964844 20.296875 13.082031 20.261719 13.203125 L 22.941406 15.234375 L 20.078125 20.183594 L 17.003906 18.878906 C 16.8125 19.019531 16.613281 19.148438 16.40625 19.269531 C 16.199219 19.390625 15.988281 19.496094 15.78125 19.582031 L 15.363281 22.917969 Z M 11.457031 20.832031 L 13.515625 20.832031 L 13.878906 18.074219 C 14.417969 17.933594 14.917969 17.730469 15.378906 17.460938 C 15.835938 17.191406 16.257812 16.867188 16.640625 16.484375 L 19.21875 17.550781 L 20.234375 15.78125 L 17.996094 14.089844 C 18.082031 13.84375 18.140625 13.589844 18.175781 13.320312 C 18.210938 13.050781 18.230469 12.777344 18.230469 12.5 C 18.230469 12.222656 18.210938 11.949219 18.175781 11.679688 C 18.140625 11.410156 18.082031 11.15625 17.996094 10.910156 L 20.234375 9.21875 L 19.21875 7.449219 L 16.640625 8.542969 C 16.257812 8.140625 15.835938 7.808594 15.378906 7.539062 C 14.917969 7.269531 14.417969 7.066406 13.878906 6.925781 L 13.542969 4.167969 L 11.484375 4.167969 L 11.121094 6.925781 C 10.582031 7.066406 10.082031 7.269531 9.621094 7.539062 C 9.164062 7.808594 8.742188 8.132812 8.359375 8.515625 L 5.78125 7.449219 L 4.765625 9.21875 L 7.003906 10.886719 C 6.917969 11.144531 6.859375 11.40625 6.824219 11.667969 C 6.789062 11.925781 6.769531 12.203125 6.769531 12.5 C 6.769531 12.777344 6.789062 13.046875 6.824219 13.308594 C 6.859375 13.566406 6.917969 13.828125 7.003906 14.089844 L 4.765625 15.78125 L 5.78125 17.550781 L 8.359375 16.457031 C 8.742188 16.859375 9.164062 17.191406 9.621094 17.460938 C 10.082031 17.730469 10.582031 17.933594 11.121094 18.074219 Z M 12.550781 16.144531 C 13.558594 16.144531 14.417969 15.789062 15.128906 15.078125 C 15.84375 14.367188 16.199219 13.507812 16.199219 12.5 C 16.199219 11.492188 15.84375 10.632812 15.128906 9.921875 C 14.417969 9.210938 13.558594 8.855469 12.550781 8.855469 C 11.527344 8.855469 10.664062 9.210938 9.960938 9.921875 C 9.257812 10.632812 8.90625 11.492188 8.90625 12.5 C 8.90625 13.507812 9.257812 14.367188 9.960938 15.078125 C 10.664062 15.789062 11.527344 16.144531 12.550781 16.144531 Z M 12.5 12.5 Z M 12.5 12.5 "/>
</g>
</svg>
